<?xml version="1.0" encoding="utf-8"?>
<!-- Generator: Adobe Illustrator 19.2.1, SVG Export Plug-In . SVG Version: 6.00 Build 0)  -->
<svg version="1.1" id="Layer_1" xmlns="http://www.w3.org/2000/svg" xmlns:xlink="http://www.w3.org/1999/xlink" x="0px" y="0px"
	 width="274px" height="63px" viewBox="0 0 274 63" style="enable-background:new 0 0 274 63;" xml:space="preserve">
<style type="text/css">
	.st0{fill:#4D4D4D;}
	.st1{fill:none;stroke:#009FD3;stroke-width:3.2371;stroke-miterlimit:10;}
</style>
<g>
	<path class="st0" d="M91.4,42.9l-3.8-14.1l-3.8,14.1h-5.4l-6.7-20.4h5.5l4,15l3.9-15h5.1l4,15l3.9-15h5.3l-6.7,20.4H91.4z"/>
	<path class="st0" d="M123.7,34.4c0,5.4-3.6,8.8-9.3,8.8c-5.7,0-9.4-3.4-9.4-8.8V22.5h5.2v11.8c0,2.8,1.8,4.5,4.3,4.5
		c2.4,0,4.1-1.7,4.1-4.5V22.5h5.2V34.4z"/>
	<path class="st0" d="M136.7,37.2h-0.1h-3.9v5.7h-5.2V22.5h9.1c5.4,0,8.5,2.6,8.5,7.1c0,3.1-1.3,5.4-3.7,6.6l4.3,6.7h-5.9
		L136.7,37.2z M136.5,33.1c2.2,0,3.6-1.1,3.6-3.3c0-2.1-1.3-3.2-3.6-3.2h-3.9v6.5H136.5z"/>
	<path class="st0" d="M156.4,34.9l-2.7,3v5h-5.2V22.5h5.2v8.8l7.8-8.8h6l-7.6,8.4l8.1,11.9h-6.2L156.4,34.9z"/>
	<path class="st0" d="M179.2,22.5c5.2,0,8.2,2.6,8.2,7.1c0,4.8-3,7.5-8.2,7.5h-3.7v5.7h-5.2V22.5H179.2z M175.5,33.1h3.4
		c2.3,0,3.6-1.1,3.6-3.3c0-2.1-1.3-3.2-3.6-3.2h-3.4V33.1z"/>
	<path class="st0" d="M199.3,37.2h-0.1h-3.9v5.7h-5.2V22.5h9.1c5.4,0,8.5,2.6,8.5,7.1c0,3.1-1.3,5.4-3.7,6.6l4.3,6.7h-5.9
		L199.3,37.2z M199.2,33.1c2.2,0,3.6-1.1,3.6-3.3c0-2.1-1.3-3.2-3.6-3.2h-3.9v6.5H199.2z"/>
	<path class="st0" d="M216.4,26.6v4h9.7v4.1h-9.7v4.1h11.1v4.1h-16.3V22.5h16v4.1H216.4z"/>
	<path class="st0" d="M246.7,24.6l-2,4c-2.2-1.3-4.9-2.1-6.5-2.1c-1.3,0-2.2,0.5-2.2,1.5c0,3.5,10.8,1.5,10.8,8.9
		c0,4.1-3.6,6.2-8.2,6.2c-3.4,0-6.9-1.3-9.3-3.3l2-4c2.1,1.8,5.2,3.1,7.4,3.1c1.6,0,2.7-0.6,2.7-1.8c0-3.6-10.8-1.5-10.8-8.7
		c0-3.8,3.2-6.1,8.1-6.1C241.6,22.3,244.6,23.2,246.7,24.6z"/>
	<path class="st0" d="M265.4,24.6l-2,4c-2.2-1.3-4.9-2.1-6.5-2.1c-1.3,0-2.2,0.5-2.2,1.5c0,3.5,10.8,1.5,10.8,8.9
		c0,4.1-3.6,6.2-8.2,6.2c-3.4,0-6.9-1.3-9.3-3.3l2-4c2.1,1.8,5.2,3.1,7.4,3.1c1.6,0,2.7-0.6,2.7-1.8c0-3.6-10.8-1.5-10.8-8.7
		c0-3.8,3.2-6.1,8.1-6.1C260.3,22.3,263.3,23.2,265.4,24.6z"/>
</g>
<g>
	<polygon class="st0" points="22.5,35.8 25.8,25.2 28,25.2 31.3,35.8 34.9,25.2 37.6,25.2 32.5,39.8 30.1,39.8 27,29.8 26.8,29.8 
		23.7,39.8 21.3,39.8 16.2,25.2 18.9,25.2 	"/>
</g>
<g>
	<polygon class="st0" points="44.7,25.2 44.7,31.6 38.3,31.6 37.5,33.9 44.7,33.9 44.7,39.8 47.2,39.8 47.2,25.2 	"/>
</g>
<circle class="st1" cx="32.6" cy="31.5" r="24.9"/>
<g>
</g>
<g>
</g>
<g>
</g>
<g>
</g>
<g>
</g>
<g>
</g>
<g>
</g>
<g>
</g>
<g>
</g>
<g>
</g>
<g>
</g>
<g>
</g>
<g>
</g>
<g>
</g>
<g>
</g>
</svg>
